{
  "asset": {
    "version": "2.0",
    "generator": "Simple Gun Generator v1.0"
  },
  "scene": 0,
  "scenes": [
    {
      "nodes": [
        0
      ]
    }
  ],
  "nodes": [
    {
      "name": "GunRoot",
      "children": [1, 2, 3, 4]
    },
    {
      "name": "Barrel",
      "mesh": 0,
      "translation": [2.0, 0.0, 0.0],
      "scale": [5.0, 0.3, 0.3] 
    },
    {
      "name": "Grip",
      "mesh": 0,
      "translation": [0.0, -1.0, 0.0],
      "scale": [0.5, 2.0, 0.8] 
    },
    {
      "name": "Magazine",
      "mesh": 0,
      "translation": [0.0, -2.5, 0.0],
      "scale": [0.3, 2.0, 0.5] 
    },
    {
      "name": "Stock",
      "mesh": 0,
      "translation": [-2.0, 0.0, 0.0],
      "scale": [3.0, 0.5, 0.5] 
    }
  ],
  "meshes": [
    {
      "name": "BoxPrimitive",
      "primitives": [
        {
          "attributes": {
            "POSITION": 1
          },
          "indices": 0,
          "material": 0,
          "mode": 4
        }
      ]
    }
  ],
  "materials": [
    {
      "pbrMetallicRoughness": {
        "baseColorFactor": [0.2, 0.2, 0.2, 1.0],
        "metallicFactor": 0.0,
        "roughnessFactor": 1.0
      },
      "name": "GunMetal"
    }
  ],
  "buffers": [
    {
      "uri": "data:application/octet-stream;base64,",
      "byteLength": 44
    }
  ],
  "bufferViews": [
    {
      "buffer": 0,
      "byteOffset": 0,
      "byteLength": 6,
      "target": 34963
    },
    {
      "buffer": 0,
      "byteOffset": 8,
      "byteLength": 36,
      "target": 34962
    }
  ],
  "accessors": [
    {
      "bufferView": 0,
      "byteOffset": 0,
      "componentType": 5123,
      "count": 3,
      "type": "SCALAR",
      "max": [2],
      "min": [0]
    },
    {
      "bufferView": 1,
      "byteOffset": 0,
      "componentType": 5126,
      "count": 3,
      "type": "VEC3",
      "max": [1.0, 1.0, 0.0],
      "min": [0.0, 0.0, 0.0]
    }
  ]
}